<?xml version="1.0" encoding="UTF-8"?>
<svg id="Capa_1" data-name="Capa 1" xmlns="http://www.w3.org/2000/svg" viewBox="0 0 1151.49 1173.48">
  <defs>
    <style>
      .cls-1 {
        fill: #fff;
        fill-rule: evenodd;
      }
    </style>
  </defs>
  <path class="cls-1" d="M966.61,310.87c-64.77-161.45-225.18-253.09-388.34-252.8-198.16.34-336.37,136.82-387.85,267.27-58.39,147.9-17.84,317.92,66.31,416.75,50.53-59.63,120.84-122.04,231.75-140.55,5.96-.99,5.08-.72,6.74-1.1l5.14,8.97,78.02,135.98,78-135.98,7.31-12.74c53.67,9.31,105.02,33.7,147.1,62.18,42.08,28.48,74.9,61.04,91.58,86.76,96.19-116.27,128.34-275.02,64.24-434.74ZM577.56,227.06c46.53,0,84.25,37.7,84.25,84.25s-37.72,84.25-84.25,84.25-84.25-37.72-84.25-84.25,37.7-84.25,84.25-84.25ZM655.58,582.28l-78.02,136-78-136-78-135.98h312l-78,135.98Z"/>
  <path class="cls-1" d="M685.12,822.87l-.08,133.47-48.27-66.67c-7.37-9.24-16.57-23.82-24.19-33.54l-23.92-33.3-30.44.03.02,185.8,31.13-.16v-133.28c1.44.65,1.06.51,2.11,2.03l61.89,86.03c.96,1.37,1.92,2.77,2.96,4.19l12.05,16.61c2.36,3.02,3.79,5.31,5.99,8.33.87,1.2,11.22,16,12.41,16.24h29.22l-.1-185.83-30.79.06Z"/>
  <polygon class="cls-1" points="527.72 980.51 427.18 980.49 427.18 929.4 514.82 929.29 514.78 901.52 427.19 901.5 427.19 850.96 525.19 850.96 525.25 822.81 395.54 822.81 395.56 1008.64 527.77 1008.43 527.72 980.51"/>
  <path class="cls-1" d="M308.28,852.47c9.9,3.55,24.57,14.5,28.75,23.57,1.89-.33,25.16-13.42,27.35-15.02-9.2-15.6-25.45-28.23-42.01-34.88-19.4-7.79-45.79-9.32-66.82-2.45-25.29,8.26-40.95,22.46-53.3,44.48-17.62,31.41-13.47,80.03,7.05,106.59,8.17,10.57,9.89,12.03,19.59,19.58,31.85,24.79,85.05,23.75,117.28-3.23,3.94-3.3,16.56-15.52,18.18-21.02-3.25-1.16-21.93-12.92-26.76-14.92h0c-2,1.6-5.77,8.28-12.64,13.86-17.04,13.84-39.98,17.44-60.81,10.34-23.68-8.07-41.61-31.06-41.69-63.45-.12-51.17,43.67-78.58,85.83-63.44Z"/>
  <polygon class="cls-1" points="906.84 850.97 968.64 850.9 968.57 822.81 813.64 822.9 813.67 850.95 875.19 850.97 875.2 1008.63 906.83 1008.64 906.84 850.97"/>
  <polygon class="cls-1" points="786.55 822.82 754.97 822.86 754.99 1008.64 786.62 1008.55 786.55 822.82"/>
  <path class="cls-1" d="M375.12,1107.72c-1.4-3.39,1.31-16.86-1.75-22.84-1.57-3.06-5.67-6.17-10.78-5.14-4.85.99-6.4,4.01-8.8,7.44-1.44-1.46-2.28-7.27-9.69-7.62-2.85-.14-4.62.73-6.33,2.17-2.06,1.73-2.37,2.78-3.7,4.2l-.46-5.65h-13.34s.08,4.01.08,4.01c8.76,0,7.08,1.25,7.08,13.1s1.17,12.67-7.29,12.67v4.1s19.43-.09,19.43-.09v-3.93s0,0,0,0c-3.76-.33-5.69-.32-6.01-4.16-.55-6.69-.23-21.13,7.71-22.2,7.57-1.02,6.79,9.11,6.79,12.5,0,10.25,1.62,13.77-5.96,13.78v4.09s18.09,0,18.09,0v-4.09c-3.5,0-5.77-.62-6.02-4.09-1.86-25.46,11.25-25.05,13.85-18.33.99,2.56.66,6.06.66,9,0,10.84,1.44,13.03-5.88,13.47v4.03s18.54-.01,18.54-.01v-4.06c-2.92-.05-5.23.05-6.22-2.35Z"/>
  <path class="cls-1" d="M125.87,1083.98h2.98c1.06-11.26,2.25-17.46,15.44-15.44v38.08c-.47,4.24-5.32,3.44-9.48,3.44v4.09s26.5,0,26.5,0v-4.09c-4.8,0-9.53,1.11-9.53-4.47,0-8.83-.35-29.69.08-37.17,10.89,0,13.49-1.25,15.45,15.46l3,.11v-19.74h-44.45v19.74Z"/>
  <path class="cls-1" d="M610.59,1090.7v-26.29l-14.6-.15v3.98c8.93,1.69,8.59-3.45,8.47,16.98-.06-.04-.19-.25-.23-.19l-2.8-2.91c-1.07-.97-2.19-1.75-3.79-2.19-17.52-4.76-24.18,25.68-9.31,33.17,2.95,1.5,6.53,1.98,9.82.74,2-.78,3.66-2.44,4.89-4.04l1.37-1.75v6.09l12.97-.06v-3.98c-8.13-.88-6.78,1.81-6.78-19.4ZM604.23,1100.37c-3.2,15.59-18.66,14.13-16.37-6.42.7-6.07,4.04-13.46,11.04-9.65,3.79,2.06,6.66,9.6,5.33,16.07Z"/>
  <path class="cls-1" d="M749.5,1103.36v-38.99l-14.6.02v3.85c8.83,1.66,8.66-3.48,8.47,16.98l-1.58-1.56c-7.77-9.29-22.64-2.65-22.73,13.73-.06,12.83,9.82,19.55,17.97,16.45,2.02-.78,3.69-2.44,4.91-4.04l.8-1.1c.04-.06.15-.17.19-.23.04-.04.15-.08.19-.21.02-.13.13-.15.19-.21v6.09l12.97-.08v-3.96c-6.3-.69-6.82.51-6.78-6.74ZM737.26,1109.95c-12.62,6.34-14.01-22.54-5.08-26.05,11.46-4.51,15.61,20.77,5.08,26.05Z"/>
  <path class="cls-1" d="M948.3,1107.66c-1.44-4.3,1.61-16.66-2.22-22.71-4.16-6.58-13.82-8.56-20.87,1.44l-.02-6.14-13.41.16.05,3.76c3.47.49,6.9-.86,7.23,3.16l-.19,19.91c-.9,3.15-3.81,2.43-7.08,2.96v3.93s20.03.02,20.03.02v-4.09s0,0,0,0c-3.43,0-6.24-.42-6.59-3.8-2.54-24.58,11.58-26.01,15.53-19.36,1.56,2.62,1.53,16.47,1.04,19.79-.48,3.34-3.54,3.37-6.84,3.37v4.1s19.36-.17,19.36-.17v-3.77c-2.85-.53-5.11.16-6.02-2.56Z"/>
  <path class="cls-1" d="M479.82,1107.66c-1.44-4.3,1.61-16.66-2.22-22.71-4.16-6.58-13.82-8.56-20.87,1.44l-.02-6.14-13.41.16.05,3.76c8.06,1.13,7.26-2.53,7.26,13.22,0,13.73.63,11.53-7.3,12.81v3.93s20.03.02,20.03.02v-4.09s0,0,0,0c-3.43,0-6.24-.42-6.59-3.8-.79-7.65-.53-20.91,8.45-22.61,8.83-1.67,8.2,8.82,8.19,12.62,0,11.3,1.68,13.78-6.92,13.78v4.1s19.36-.17,19.36-.17v-3.77c-2.85-.53-5.11.16-6.02-2.56Z"/>
  <path class="cls-1" d="M313.62,1103.72c-.08,3.08-.15,6.26-2.67,6.99-2.36-.67-2.02-2.72-2.02-5.5.02-5.54.74-17.06-1.35-20.45-3.71-6.05-14.34-6.93-21.17-2.61-2.61,1.66-5.56,7.01-1.71,9.86,4.04,2.99,9.46-2,4.93-4.59-.88-.51-1.85-.57-1.58-1.81.44-2.09,6.68-2.34,8.76-2.09,5.2.61,6,3.29,6,8.66-2.19,3.9-21.84,4.84-22.56,14.51-.42,5.71,4.7,8.28,10.22,8.19,5.56-.08,10-3.14,12.28-5.92.65.8,2.19,7.9,9.71,5.58,4.04-1.26,4.76-6.02,4.89-10.89l-3.73.06ZM299.85,1108.27c-1.98,2-7.77,4.21-10.64,1.56-3.98-3.71-.19-7.9,2.97-9.6,3.1-1.66,7.12-2.82,10.45-4.13,1.05,4.4-.42,9.84-2.78,12.17Z"/>
  <path class="cls-1" d="M710.24,1103.72c-.08,3.08-.15,6.26-2.68,6.99-2.36-.67-2.02-2.72-2.02-5.5.02-5.54.74-17.06-1.35-20.45-3.71-6.05-14.34-6.93-21.17-2.61-2.61,1.66-5.56,7.01-1.71,9.86,4.04,2.99,9.46-2,4.93-4.59-5.9-3.37,5.2-4.13,7.18-3.9,5.22.61,6,3.29,6.02,8.66-2.21,3.9-21.86,4.84-22.58,14.51-.42,5.71,4.7,8.28,10.22,8.19,5.58-.08,10-3.14,12.28-5.92.65.8,2.21,7.9,9.71,5.58,4.04-1.26,4.76-6.02,4.89-10.89l-3.73.06ZM685.82,1109.82c-3.98-3.71-.19-7.9,2.97-9.6,3.1-1.66,7.12-2.82,10.45-4.13,2.95,12.24-9.06,17.8-13.42,13.73Z"/>
  <path class="cls-1" d="M241,1103.72c-.06,3.05-.13,6.26-2.65,6.99-2.38-.67-2.04-2.72-2.02-5.5,0-5.54.74-17.06-1.35-20.45-3.71-6.05-14.34-6.93-21.19-2.61-2.61,1.66-5.56,7.01-1.71,9.86,4.04,2.99,9.46-2,4.93-4.59-.88-.51-1.83-.57-1.58-1.81.19-.91,1.18-1.2,2.15-1.52,2-.67,4.44-.82,6.63-.57,5.2.61,5.98,3.29,6,8.66-2.21,3.9-21.86,4.84-22.58,14.51-.42,5.71,4.7,8.28,10.22,8.19,5.58-.08,10-3.14,12.28-5.92,1.56,1.9.91,3.6,3.26,4.91,1.83,1.03,4.32,1.33,6.45.67,4.07-1.26,4.76-6.02,4.89-10.89l-3.73.06ZM216.59,1109.82c-3.98-3.71-.19-7.9,2.97-9.6,3.1-1.66,7.12-2.82,10.45-4.13,2.95,12.24-9.06,17.8-13.42,13.73Z"/>
  <path class="cls-1" d="M646.37,1104.73c-3.69,9.96-20.49,9.16-19-6.8h23.42c0-9.16-3.75-18.11-13.61-18.39-9.1-.23-15.63,6.7-17,14.62-3.9,22.85,28.08,28.54,30.54,8.68h-3.12c-1.16.61-.67.34-1.24,1.9ZM635.7,1083.45c5.94-.23,7.96,4.87,8.17,10.59l-16.28-.11c.61-5.56,2.49-10.28,8.11-10.49Z"/>
  <path class="cls-1" d="M985.25,1104.73c-3.67,9.96-20.49,9.16-19-6.8h23.44c-.04-25.93-27.49-21.95-30.6-3.77-3.92,22.85,28.08,28.54,30.54,8.68h-3.14c-1.14.61-.67.34-1.24,1.9ZM974.58,1083.45c5.96-.23,7.98,4.87,8.19,10.59l-16.28-.11c.61-5.56,2.49-10.28,8.09-10.49Z"/>
  <path class="cls-1" d="M433.66,1106.52c-4.97,7.9-19.61,6.45-18.2-8.59h23.44c-.04-25.93-27.49-21.95-30.6-3.77-3.92,22.85,28.08,28.54,30.54,8.68h-3.12c-1.66.88-.61,1.39-2.06,3.69ZM423.78,1083.45c5.96-.23,7.98,4.87,8.19,10.59l-16.28-.11c.61-5.56,2.49-10.28,8.09-10.49Z"/>
  <path class="cls-1" d="M908.33,1095.14c-.84-8.49-8.49-16.77-18.03-15.48-8.66,1.18-15.25,9.54-14.39,19.61.72,8.55,8.47,16.77,18.07,15.48,8.64-1.14,15.33-9.54,14.34-19.61ZM900.54,1102.6c-2.86,15.08-21.44,9.75-16.87-10.85,3.2-14.32,20.98-10.55,16.87,10.85Z"/>
  <path class="cls-1" d="M553.8,1095.14c-.84-8.49-8.49-16.77-18.05-15.48-8.64,1.18-15.23,9.54-14.39,19.61.74,8.55,8.49,16.77,18.09,15.48,8.64-1.14,15.33-9.54,14.34-19.61ZM546.14,1101.86c-2.8,15.75-21,11.14-17.12-9.5,2.86-15.29,20.81-11.18,17.12,9.5Z"/>
  <path class="cls-1" d="M1019.54,1095.27c-4.2-2.09-20.72-3.14-17.06-9.44,2.08-3.56,14.41-3.78,17.01,5.63l3.06-.05v-11.01s-2.8-.07-2.8-.07l-1.19,3.96c-2.89-1.61-4.52-3.82-9.36-4.31-4.4-.45-8.18,1.2-10.16,3.49-2.21,2.57-3.36,7.07-.78,10.36,4.76,6.06,14.33,4.88,19.71,8.23,6.96,4.33-1.01,12.97-11.9,6.68-3.11-1.8-4.97-3.9-5.9-8.16h-3.01v13.42h3.26l1.38-4.64c1.2.65,2.47,1.86,3.91,2.73,1.52.91,2.83,1.55,4.68,2,4.11,1.01,8.29.05,10.98-1.96,6.42-4.8,5.35-13.3-1.83-16.86Z"/>
  <path class="cls-1" d="M798.45,1111.31c-6.27-.04-9.05-4.27-9.79-10.17-2.78-22.2,17.01-19.47,17.23-13.43-1.43,1.2-4.75,2.13-2.53,5.51,1.16,1.76,4.03,2.39,6.11,1.04,4.22-2.74.87-10.17-2.11-12.1-9.81-6.36-20.46-.5-24.25,6.97-8.7,17.18,9.7,31.73,22.41,24.27,3.8-2.23,6.17-5.45,6.81-11.54l-3.83.03c-.56,1.18-1.14,9.47-10.05,9.41Z"/>
  <path class="cls-1" d="M834.94,1111.31c-6.3-.04-9.02-4.3-9.77-10.04-2.89-22.32,16.99-19.62,17.21-13.56-1.43,1.2-4.75,2.13-2.53,5.51,1.16,1.76,4.03,2.39,6.11,1.04,4.22-2.74.87-10.17-2.11-12.1-9.8-6.36-20.46-.5-24.25,6.97-5.31,10.49-.02,21.13,7.57,24.6,4.43,2.02,10.7,2.1,14.84-.32,3.8-2.23,6.17-5.45,6.81-11.54l-3.83.03c-.56,1.18-1.14,9.47-10.05,9.41Z"/>
  <path class="cls-1" d="M198.36,1079.67c-6.98-1.24-8.87,4.75-10.62,10.11l-.05-9.52-12.89.14.05,3.76c4.47.63,7.11-.7,7.11,4.66,0,22.21,1.65,20.67-7.23,21.3v3.97s21.22.05,21.22.05v-4.09c-7.7,0-7.81-.66-7.81-8.57,0-6.82,4.08-20.13,8.82-18.26,1.87.74-.13,2.26-.68,3-2.03,2.73-.12,5.83,3.3,5.55,6.12-.49,5.53-10.91-1.22-12.11Z"/>
  <path class="cls-1" d="M260.7,1107.06c-.75-5.53-.09-16.65-.09-22.77h12.7s.03-4.03.03-4.03h-12.73s0-9.01,0-9.01c-2.49-.11-2.01-.22-2.68.65l-1.33,2.79c-.61,1.07-1.62,2.51-2.35,3.23-1.92,1.89-3.89,2.49-6.81,4.03v2.3s7.05.03,7.05.03v16.08c0,5.68-.44,9.4,3.05,12.45,2.92,2.55,8.6,2.75,11.98.5,3.51-2.33,4.55-5.77,4.69-11.22l-3.79.1c-.19,10.78-8.91,11-9.74,4.86Z"/>
  <path class="cls-1" d="M502.39,1107.06c-.75-5.53-.09-16.65-.09-22.77h12.7s.03-4.03.03-4.03h-12.73s0-9.01,0-9.01c-2.33-.1-2.28-.4-3.16,1.67-2.53,5.9-4.92,6.34-9.99,9.03v2.3s.01,0,.01,0l7.03.03v16.08c0,5.68-.44,9.4,3.05,12.45,3.22,2.81,16.26,5.37,16.67-10.72l-3.79.1c-.18,10.78-8.91,11-9.74,4.86Z"/>
  <path class="cls-1" d="M866.04,1107.64c-.43-1.35-.2-24.85-.2-27.37l-13.26.14.05,3.76c8.25,1.15,7.11-1.11,7.11,13.22,0,13.57.93,11.51-7.15,12.81v3.94s0,0,0,0l20.26-.07v-3.93c-2.88-.24-5.95.17-6.8-2.5Z"/>
  <path class="cls-1" d="M397.56,1107.64c-.43-1.35-.2-24.85-.2-27.37l-13.26.14.05,3.76c8.25,1.15,7.11-1.11,7.11,13.22,0,13.57.93,11.51-7.15,12.81v3.94s0,0,0,0l20.26-.07v-3.93c-2.88-.24-5.95.17-6.8-2.5Z"/>
  <path class="cls-1" d="M770.71,1107.64c-.43-1.35-.2-24.85-.2-27.37l-13.26.14.05,3.76c8.25,1.15,7.11-1.11,7.11,13.22,0,13.57.93,11.51-7.15,12.81v3.94s0,0,0,0l20.26-.07v-3.93c-2.88-.24-5.95.17-6.8-2.5Z"/>
  <path class="cls-1" d="M863.72,1069.95c4.33-1.4,2.19-8.66-2.36-6.96-4.9,1.83-2.19,8.43,2.36,6.96Z"/>
  <path class="cls-1" d="M392.87,1062.99c-4.9,1.83-2.19,8.43,2.36,6.96,4.33-1.4,2.19-8.66-2.36-6.96Z"/>
  <path class="cls-1" d="M766.02,1062.99c-4.9,1.83-2.19,8.43,2.36,6.96,4.33-1.4,2.19-8.66-2.36-6.96Z"/>
</svg>