<?xml version="1.0" encoding="UTF-8"?>
<svg id="Capa_1" data-name="Capa 1" xmlns="http://www.w3.org/2000/svg" viewBox="0 0 1295.88 1328.15">
  <defs>
    <style>
      .cls-1 {
        fill: #1d1d1b;
      }

      .cls-2 {
        fill: #e8e226;
      }
    </style>
  </defs>
  <g>
    <path class="cls-1" d="M342.82,469.29h-48.55v219.53h-90.24v-219.53h-32.72v-74.94h32.72v-8.44c0-36.23,10.37-63.76,31.14-82.59,20.75-18.82,51.19-28.23,91.3-28.23,6.68,0,11.61.18,14.78.53v76.52c-17.24-1.06-29.38,1.41-36.41,7.39-7.04,5.99-10.55,16.71-10.55,32.19v2.64h48.55v74.94Z"/>
    <path class="cls-1" d="M661.03,563.23h-204.23c1.4,18.3,7.3,32.28,17.68,41.95,10.37,9.68,23.13,14.51,38.26,14.51,22.51,0,38.17-9.5,46.97-28.5h96.04c-4.93,19.35-13.81,36.77-26.65,52.24-12.85,15.48-28.94,27.62-48.29,36.41-19.35,8.8-40.99,13.19-64.91,13.19-28.85,0-54.54-6.15-77.05-18.47-22.52-12.31-40.11-29.9-52.77-52.77-12.67-22.86-19-49.61-19-80.21s6.24-57.34,18.73-80.21c12.48-22.86,29.99-40.45,52.51-52.77,22.51-12.31,48.37-18.47,77.57-18.47s53.83,5.99,75.99,17.94c22.16,11.96,39.49,29.02,51.98,51.19,12.48,22.16,18.73,48.02,18.73,77.58,0,8.44-.53,17.24-1.58,26.39ZM570.26,513.09c0-15.48-5.28-27.79-15.83-36.94-10.55-9.15-23.75-13.72-39.58-13.72s-27.89,4.4-38.26,13.19c-10.38,8.8-16.8,21.29-19.26,37.47h112.93Z"/>
    <path class="cls-1" d="M839.92,405.17c15.83-9.32,33.42-13.99,52.77-13.99v95.52h-24.8c-22.52,0-39.41,4.84-50.66,14.51-11.26,9.68-16.89,26.65-16.89,50.93v136.68h-90.24v-294.47h90.24v49.08c10.55-16.18,23.75-28.93,39.58-38.26Z"/>
    <path class="cls-1" d="M188.46,827.61c11.43-22.86,27-40.45,46.7-52.77,19.7-12.31,41.69-18.47,65.97-18.47,20.75,0,38.96,4.22,54.62,12.66,15.65,8.44,27.71,19.53,36.15,33.25v-41.69h90.24v294.47h-90.24v-41.69c-8.8,13.72-21.03,24.8-36.68,33.25-15.66,8.44-33.86,12.66-54.62,12.66-23.93,0-45.74-6.24-65.44-18.73-19.71-12.48-35.27-30.25-46.7-53.3-11.44-23.04-17.15-49.69-17.15-79.95s5.71-56.81,17.15-79.69ZM373.17,854.53c-12.49-13.01-27.71-19.52-45.65-19.52s-33.16,6.42-45.65,19.26c-12.49,12.85-18.73,30.53-18.73,53.04s6.24,40.37,18.73,53.56c12.48,13.19,27.71,19.79,45.65,19.79s33.16-6.51,45.65-19.52c12.48-13.01,18.73-30.78,18.73-53.3s-6.25-40.28-18.73-53.3Z"/>
    <path class="cls-1" d="M809.58,790.94c20.58,22.35,30.87,53.04,30.87,92.09v172.04h-89.71v-159.9c0-19.7-5.1-35-15.3-45.91-10.21-10.9-23.93-16.36-41.16-16.36s-30.96,5.46-41.16,16.36c-10.21,10.91-15.3,26.21-15.3,45.91v159.9h-90.24v-294.47h90.24v39.05c9.14-13.01,21.46-23.3,36.94-30.87,15.48-7.56,32.89-11.35,52.24-11.35,34.47,0,62.01,11.17,82.59,33.51Z"/>
    <path class="cls-1" d="M1067.37,978.54v76.52h-45.91c-32.72,0-58.23-8-76.52-24.01-18.3-16.01-27.44-42.13-27.44-78.37v-117.15h-35.89v-74.94h35.89v-71.77h90.24v71.77h59.11v74.94h-59.11v118.21c0,8.8,2.11,15.13,6.33,19,4.22,3.87,11.25,5.8,21.11,5.8h32.19Z"/>
  </g>
  <path class="cls-2" d="M951.23,268.87h85.67c34.63,0,62.71,28.08,62.71,62.71v62.33h-148.38v-125.04Z"/>
</svg>