<?xml version="1.0" encoding="UTF-8"?>
<svg id="Capa_1" data-name="Capa 1" xmlns="http://www.w3.org/2000/svg" viewBox="0 0 1080 1080">
  <defs>
    <style>
      .cls-1 {
        fill: #fff;
      }
    </style>
  </defs>
  <path class="cls-1" d="M341.65,518.29h41.98v6.52h-99.05v-6.52h26.09c9.11-43,18.21-86.01,27.32-129.01,1.22,43,2.44,86.01,3.66,129.01Z"/>
  <path class="cls-1" d="M635,414.14v103.12h36.69v6.52h-99.53v-7.81c6.31.02,12.62.04,18.93.07V254.23c-9.17-7.97-18.34-15.95-27.51-23.92h77.95c100.27,0,146.33,37.09,146.33,87.64,0,60.33-55.03,95.38-152.85,96.2ZM635,236.83v170.79c35.46-.41,59.1-33.83,59.1-89.27s-22.01-81.52-54.62-81.52h-4.48Z"/>
  <path class="cls-1" d="M554.83,523.79h75.92c-1.18-19.36-2.36-38.71-3.53-58.07-21.28-66.11-42.55-132.21-63.83-198.32l-86.01,258.43h-22.42l-102.31-258.83c-2.04-4.76-4.08-9.51-6.11-14.27v-.41l-36.68-22.01h124.73l71.33,187.09,45.24-187.09h67.48c-21.27,97.83-42.54,195.65-63.81,293.48Z"/>
  <path class="cls-1" d="M787.86,519.95v1.98h-40.8l-4.22-4.59c-7.44,4.22-16.49,6.45-27.28,6.45-20.46,0-35.1-8.19-35.1-24.8,0-12.28,8.31-21.45,23.19-25.67-3.97-6.08-5.71-11.66-5.71-17.98,0-13.27,10.67-25.18,26.04-25.18,13.89,0,24.06,6.45,24.06,15.01,0,9.05-5.58,14.01-19.47,16.99,2.73,3.22,5.7,6.7,9.05,10.29l20.34,22.32c2.23-6.45,2.6-13.77.5-21.08l-9.8-5.95h29.52l-11.04,5.95c-.74,9.05-2.85,17.24-6.2,24.18l20.09,22.07h6.82ZM740.73,515.11l-26.66-28.77c-4.22-4.46-7.44-8.43-9.92-12.15-.87,2.36-1.36,4.96-1.36,8.31,0,21.83,10.91,35.22,26.17,35.22,4.09,0,8.06-.99,11.78-2.6ZM717.05,440.82c0,6.08,4.34,12.77,10.79,20.46,1.74-5.33,2.48-10.67,2.48-15.01,0-9.43-2.23-13.64-7.07-13.64-3.97,0-6.2,3.84-6.2,8.18Z"/>
  <path class="cls-1" d="M457.96,849.69h-20.02l-118.58-264.1-30.41-20.79h157.46l-34.26,20.79,75.84,174.4c-10.01,29.9-20.02,59.8-30.03,89.7Z"/>
  <path class="cls-1" d="M647.03,743.25v100.11h35.61v6.33h-154.32v-6.33h31.65v-257.2l-35.22-21.37h128.6c97.34,0,142.05,36.01,142.05,85.07,0,58.56-53.42,92.59-148.38,93.38ZM647.03,571.13v165.79c34.43-.4,57.37-32.84,57.37-86.66s-21.37-79.14-53.02-79.14h-4.35Z"/>
  <path class="cls-1" d="M597.33,564.8l-34.26,20.79c-16.6,33.57-33.2,67.15-49.81,100.72,6.85-33.57,13.7-67.15,20.55-100.72l-45.81-20.79h109.34Z"/>
</svg>