<?xml version="1.0" encoding="UTF-8"?>
<svg id="Capa_1" data-name="Capa 1" xmlns="http://www.w3.org/2000/svg" viewBox="0 0 1410.9 304.1">
  <defs>
    <style>
      .cls-1 {
        fill: #fff;
      }
    </style>
  </defs>
  <path class="cls-1" d="M142.25,162.67c-1.22,7.7-2.28,14.04-4.05,20.85l-40.67.24c-2.43-3.99-.48-8.19.22-12.71l12.83-81.99-42.67-.34,4.74-30.92,128.85-.03-4.71,31-37.97.28c-1.72.01-5.05.66-5.37,2.7l-11.2,70.92Z"/>
  <path class="cls-1" d="M964.15,169.39c-4.33-13.77,4.46-26.94,16.57-32.11,15.12-6.45,40.33-7.04,59.06-14.19,2.8-1.07,2.01-5.11,1.27-7.34-.78-2.32-3.22-4.34-6.71-4.26l-10.78.25c-7.32.17-11.13,6.13-15.01,9.26-11.75,1.47-23.38-2.13-35.37-2.52,8.39-32.84,59.22-30.01,84.62-25.92,13.76,2.22,22.28,13.68,20.89,27.72s-4.3,28.66-6.47,43.2c-1.05,6.98-.8,13.15,1.25,20.13l-34.76-.35c-2.79-1.68-1.84-6.69-4.08-9.86-15.98,14.22-62.93,19.99-70.47-3.99ZM1013.33,166.17c15.02-.49,25.97-11.03,24.66-25.55l-21.38,5.48c-4.04,1.03-7.98,2.27-11.12,4.85-3.53,2.9-4.7,7.35-2.76,11.02,1.68,3.16,5.66,4.37,10.6,4.21Z"/>
  <path class="cls-1" d="M483.49,119.77c-14.92,6.34-13.08,46.1-18.12,63.54l-38.54.06,3.52-23.96,2.92-17.37,8-49.87,34.52-.1c.9,3.83-1.23,7.59.91,12.77,14.63-14.31,37.85-20.12,56.18-9.1,10.01,6.02,9.99,19.68,8.39,29.83l-9.14,58-38.49-.06,4.23-28.21c1.23-8.18,6.15-30.31,1.43-34.46-3.96-3.49-10.47-3.35-15.81-1.08Z"/>
  <path class="cls-1" d="M877.27,92.56l-14.36,91.1-34.66-.13.59-13.61c-12.13,11.95-27.09,17.19-43.88,15.31-15.35-1.72-24.67-13.54-22.31-29.03l9.73-63.91,38,.15-7.95,53.4c-.67,4.47.73,9.59,5.12,11.26,10.09,3.82,21.17-2.37,23.05-13.15l8.98-51.51,37.67.13Z"/>
  <path class="cls-1" d="M664.19,116.12c8.55,24.42-7.58,54.02-29.73,63.1-26.96,11.05-74.09,10.08-81.72-23.15-5.18-22.6,6.56-45.34,26.78-57.11,20.8-12.11,62.16-12.73,76.85,4.51,2.84,3.33,6.3,8.3,7.82,12.66ZM624.13,149.88c3.95-8.69,5.64-18.73,2.27-27.19-3.42-8.59-14.8-9.53-22.68-5.98-13.41,6.03-19.04,33.34-8.6,41.45,9.4,7.3,23.92,2.91,29-8.27Z"/>
  <polygon class="cls-1" points="1126.35 183.34 1088.13 183.54 1107.74 57.93 1145.93 57.97 1126.35 183.34"/>
  <path class="cls-1" d="M919.62,183.18l-38.31.29,14.55-91.14,34.77.12-.23,13.2c9.06-15.74,27.78-19.88,42.91-10.11l-15.55,24.61c-9.67-4.89-20.04-2.8-25.37,6.76-3.48,6.25-5.67,13.03-6.85,20.22l-5.91,36.06Z"/>
  <path class="cls-1" d="M710.71,183.56l-37.98-.36,14.14-90.32h35.29c.01,4.42-2.26,7.73-.27,12.4,8.99-15.4,26.95-19.12,42.39-10.06l-15.58,25.07c-10.19-5.62-20.48-2.23-25.58,7.45-3.19,6.05-5.28,12.42-6.41,19.32l-6.01,36.51Z"/>
  <path class="cls-1" d="M460.6,234.57c-.56-10.19,3.76-18.55,2.69-28.19-8.18,8.37-13.87,16.73-20.89,25.28-2.28,2.78-8.82,6.93-11.27,2.42l-15.74-28.97-5.48,29.67c-.34,1.85-5.31.96-7.13.12l5.41-36.32c3.76-1.26,7.65-.59,12.03-.36l16.21,30.18,24.19-30.07c4.18-.76,8.11-.71,12.39.21l-5.44,35.44c-.34,2.19-6.86,2.33-6.96.58Z"/>
  <path class="cls-1" d="M914.48,245.5c-7.47,1.93-28.14,5.25-28.56-5.46-.07-1.88,1.62-2.27,3.92-2.25,1.3.01,2.12,1.31,3.51,3.01,3.37,4.11,15.94,2.08,18.36.04,1.78-1.5,2.59-4.21,1.28-6.39-7.26,1.34-17.75,4.31-24.53-1.7-4.62-4.09-1.98-17.1,2.78-20.6,8.99-6.61,21.05-1.46,33.31-2.8-2.23,9.77-1.26,33.88-10.06,36.15ZM912.46,229.39c3.1-2.5,5.1-11.48,2.39-13.91-4.87-4.36-12.46-2.08-17.89-1.03-3.07,5.24-4.57,10.27-2.34,16.1,5.31,1.13,12.56,3.07,17.84-1.17Z"/>
  <path class="cls-1" d="M881.24,235.39c-11.28,3.57-8.32-7.41-13.7-7.06-8.69.56-18.09-1.48-26.43.89-3.17,3.67-6.68,9.77-13.39,5.98l26.83-36.11c1.75-2.35,8.01-1.38,10.54-.46l16.16,36.76ZM867.56,222.91c-2.97-7.47-4.39-12.33-8.31-18.82-5.46,6.47-9.41,12.06-13.72,19.02,7.85.77,14.47,1.17,22.03-.2Z"/>
  <path class="cls-1" d="M548.28,245.44c-.81-4.13,2.49-7.76-.17-10.58-7.95,1.19-17.73,3.85-23.75-2.17-5.14-5.15-2.29-17.1,3.35-20.9,9.14-6.16,19.71-1.01,32.51-2.41-1.58,12.64-3.16,24.17-5.45,36.37-.31,1.63-6.12,1.6-6.5-.31ZM547.37,229.92c3.89-2.45,6.26-11.48,2.7-14.71-3.42-3.11-12.29-2.78-16.1-.56-5.47,3.18-5.05,10.83-3.34,16.07,5.3,1.03,11.25,2.66,16.75-.8Z"/>
  <path class="cls-1" d="M705.46,235.6c-11.62-1.43-24.03,3.77-32.33-2.35-4.62-3.41-1.43-11.04,3.26-13.03-.79-2.42-2.72-3.66-1.75-5.4,4.6-8.25,18.61-6.93,27.81-5.2,10.73,2.01,4.02,16.13,3.02,25.98ZM700.42,220.46c1.05-3.57.82-5.96-1.03-6.69-5.39-2.13-20.49-1.58-18,5.37,6.44.18,13.24-.1,19.03,1.33ZM699.52,225.38c-1.46-2.93-17.5-3.72-20.23.17-.71,1.01-1.48,4.75.38,5.28,6.69,1.9,23.41,1.69,19.84-5.45Z"/>
  <path class="cls-1" d="M800.71,234.92c-1.02,2.71-6.51-.07-8.72.28-7.74,1.21-15.36,2.3-22.5-1-3.3-1.52-3.67-5.47-2.76-8.4.86-2.75,3.4-4.55,6.34-5.77-1.83-2.51-3.51-3.67-2.76-5.41,3.48-8.08,18.66-6.41,27.3-5.19,10.15,1.43,4.89,20.76,3.1,25.49ZM795.86,220.15c1.35.2,1.61-4.95.16-5.61-7.72-3.52-16.78-2.64-22.63,4.56,7.98.41,15.19-.05,22.47,1.05ZM795.54,226.6c-.38-4.6-19.25-5.53-21.45.13-.48,1.24-.65,4.08,1.25,4.4,5.14.87,20.75,2,20.2-4.53Z"/>
  <path class="cls-1" d="M1118.58,235.63c-3.67,1.46-6.9-.86-10.61-.23-7.37,1.25-15.39,1.99-22.01-1.66-6.72-3.7,1.93-13.98,1.81-13.64.76-2.03-1.23-4.56-.04-6.54,3.93-6.53,19.84-5.31,26.97-4.17,4.36.7,6.74,3.79,6.17,8.24l-2.29,17.98ZM1113.28,219.87c1.44.05,1.12-5.24-.48-5.64-7.75-1.93-15.31-3.77-21.86,5.08,7.87-.34,14.31.27,22.35.56ZM1112.56,225.34c-1.15-3.14-13.61-2.03-17.35-2.02-2.97,0-6.1,5.71-3.32,7.13,5.18,2.63,23.35,2.19,20.67-5.1Z"/>
  <path class="cls-1" d="M480.14,234.21c-3.67-1.62-3.27-5.59-2.72-8.9,1.49-8.89,21.39-5.76,28.53-5.2,1.68.13,1.79-5.54-.62-6.28-17.75-5.49-20.65,9-24.54,2.75-1.69-2.72,3.51-6.78,6.61-7.25,6.65-1.01,28.16-3.25,26.82,7.79-.76,6.23-1.57,12.22-2.72,18.18-11.82-.65-21.75,3.15-31.35-1.09ZM505.73,226.45c-.03-4.33-19.21-5.2-21.26.24-.47,1.24-.62,3.86,1.29,4.28,4.82,1.07,20.02,2.59,19.97-4.53Z"/>
  <path class="cls-1" d="M1056.69,232.59c-8.16,5.38-22.18,5.81-30.27.48-5.57-3.67-2.24-18.98,3.46-21.64,8.77-4.09,21.45-4.85,29.33.59,4.6,3.18,2.75,17.1-2.52,20.57ZM1051.65,230.25c1.18-4.71,4.76-11.6,1.34-15.16-3.37-2.98-13.73-2.78-17.63-.4-4.99,3.04-4.46,11.11-3.38,15.87,6.67,1.9,12.59,1.89,19.67-.31Z"/>
  <path class="cls-1" d="M990.63,229.63c4.04,3.95,13.66,2.55,17.62.54,1.84-.94,1.72-4.35,3.05-4.65s5.27-.96,5.64.56c2.85,11.83-26.48,12.95-33.08,6.66-4.92-4.69-2-17.32,3.42-20.84,8.21-5.33,34.24-5.32,30.76,5.85-.56,1.81-3.42.77-4.64,1.1-2.13.57-1.85-2.84-3.85-4.02-4.12-2.44-11.26-2.5-16.3-.09-3.58,1.72-6.22,11.36-2.61,14.89Z"/>
  <path class="cls-1" d="M655.48,235.41l.8-19.71c-3.04-4.45-15.87-3.44-19.18,1.76-3.37,5.3-1.59,11.66-3.71,17.13-.65,1.67-5.98,1.95-6.5.3.25-8.34,2.05-16.86,3.51-25.44,3.85-1.47,6.69,1.02,10.75.33,6.64-1.12,16.58-3.13,21.52,2.28,3.37,3.68-.89,21.88-1.16,22.46-.67,1.41-6.09,2.43-6.02.89Z"/>
  <path class="cls-1" d="M603.6,209.95c-.5,8.07-2.08,17.59-3.89,25.7-3.43,1.12-6.48-1.06-9.85-.41-6.98,1.33-24.84,2.83-22.8-7.98,1.11-5.87,1.05-11.64,3.04-17.4.48-1.4,5.2-1.43,5.83-.1,1.55,5.84-3.35,13.96-.76,20.04,3.37,3.57,15.19,3.01,17.97-1.65,3.45-5.79,1.66-12.35,4.1-18.27.71-1.73,5.18-1.49,6.35.09Z"/>
  <path class="cls-1" d="M955.25,214.9c-3.18-4.13-13.24-2.07-14.27,3.12l-3.42,17.17c-.58,1.43-5.32,1.29-6.44-.14l3.66-26.09c9.55,2.06,24.01-3.95,27.88,3.72.87,1.73.33,3.68.2,5.16-.14,1.61-2.62.64-3.85,1.09-3.08,1.12-2.16-1.94-3.76-4.02Z"/>
  <path class="cls-1" d="M740.56,214.46c-4.77-3.87-13.38-.81-14.88,5.18-1.31,5.26-.67,10.25-2.79,15.17-.7,1.62-4.21,1.3-6.61.65,1.2-8.88,1.91-17.56,4.17-26.34,10.79,1.51,20.9-3.27,26.93,2.1,1.47,1.31.72,4.27.87,5.55.28,2.5-2.12,1.86-4.63,2.23s-1.36-3.17-3.07-4.55Z"/>
  <path class="cls-1" d="M975.38,213.99l-3.42,20.56c-.31,1.84-6.57,2.38-6.58.67-.03-5.03,4.79-33.12,3.48-31.06-.13.21,12.66-8.95,15.72-2.57-3.76,2.74-7.38,2.8-11.86,5.42,1.99,1.82,3.22,3.66,2.66,6.99Z"/>
  <path class="cls-1" d="M1074.85,233.49c-.47,3.34-5.82,3.42-7.01,1.66.86-11.55,3.26-24.05,5.19-36.05.28-1.71,5.87-1.68,6.72-.13l-4.9,34.53Z"/>
  <path class="cls-1" d="M760.85,209.99c-.56,4.01-2.09,26-5.33,25.92-1.38-.03-5.01.52-4.77-1.78.89-8.47,1.67-16.16,3.69-24.2.41-1.62,5.86-1.57,6.41.06Z"/>
  <path class="cls-1" d="M617.72,233.05c-.48,3.35-6.98,4.1-6.99,1.72-.03-8.28,1.56-17.08,3.63-24.95.62-2.35,5.61-1.12,6.23.51,1.13,2.96,1.61,4.74-.34,7.95-2.31,3.8-1.76,9.43-2.53,14.77Z"/>
  <path class="cls-1" d="M758.38,203.86c-2.89-.21-3.43-1.24-3.11-3.14.32-1.85,1.3-2.76,3.78-2.75,3.21,0,3.86.17,3.79,2.75-.06,2.23-.68,3.42-4.47,3.14Z"/>
  <path class="cls-1" d="M619.61,203.62c-2.31.26-3.96.44-4.29-1.36-.36-1.99.25-4.24,2.97-4.33,1.82-.06,3.5.28,3.81,1.45.49,1.82-.29,3.99-2.49,4.24Z"/>
  <g>
    <path class="cls-1" d="M256.91,158.07c11.16-2.72,23.84,1.91,35.46,2.03-17.79,26.78-47.43,26.6-74.63,24.45-15.25-1.21-25.87-10.29-32.08-23.61-1.65-3.54-2.22-5.4-2.49-9.72-1.51-23.82,10.61-45.21,33.24-54.97,22.54-9.72,68.9-10.27,80.06,16,4.74,11.15,4,23.56.74,34.63l-73.56.28c-2.88,2.96-.77,8.54.95,11.79,2.17,4.09,6.86,5.04,11.2,6.14,8.93,2.26,13.58-5.18,21.12-7.02ZM261.08,129.7c2.36-7.73-1.91-16.5-10.66-18.31-11.91-2.46-23.86,5.92-25.79,18.05l36.45.26Z"/>
    <path class="cls-1" d="M346.58,153.53c6.16,12.33,22.39,9.97,30.51,2.28,2.73-2.59,5.14-5.93,8.02-7.31,11.65-.34,22.31,2.18,34.63,3.22-10.17,22.86-33.59,33.99-57.67,33.74-13.73-.14-27.25-.52-38.77-7.28-12.43-7.28-18.01-18.65-17.3-32.53,1.11-21.62,12.31-40.16,33.19-49.14,22.71-9.77,77.61-12.43,82.92,23.69-2.06,4.02-31.13,5.42-36.45,5-2.31-13.93-22.58-10.86-27.96-7.53-10.58,6.57-17.24,23.6-11.12,35.84Z"/>
  </g>
  <g>
    <path class="cls-1" d="M1181.8,59.37c.26,4.74-.01,9.89,1.63,14.84,2.88,8.7,9.66,11.74,11.21,9.13.52-.88.46-1.86.71-2.78,1.65-6.16-3.38-11.81-3.46-19.4,8.78-3.13,22.1-2.51,31.96-1.98-1.98,10.41-7.46,32.96-.16,41.95,1.16,1.43,3.44,1.6,4.6.66,3.93-3.16-5.65-9.07,1.62-18.12-4.23-5.88-.29-16.29.76-22.94,11.9-2.44,24.54-2.28,36.68-1.47,1.14,3.27-.99,6.12-2.4,9.48-6.06,14.36-20.11,43.15-13.37,56.24,1.1,2.13,3.67,2.52,5.49,1.65,1.2-.58,1.07-2.28,1.33-3.59.78-.68,2.65-1.33,2.79-3.33.76-10.67,3.78-20.42,7.83-30.24,1.57-3.81,3.43-18.52,10.55-27.89,3.3-4.35,39.11-2.8,44.68-2.24-.1,3.63-3.09,6.06-5.37,9.23l-32.15,44.94-11.6,20.75c-.29.51-4.42,18.11,3.69,16.98,3.07-.42,2.35-3.44,2.11-5.66,1.15.54.89,1.78,1.99,3.27,6.25-15.14,14.15-28.6,23.41-42.32l30.23-44.8c5.24-2.48,11.02-3.24,16.35-2.36,2.89,6.63-.53,2.73-1.66,20.08-.65,9.93-3.07,19.21-4.57,28.94-12.84,14.09-59.73,55.55-51.49,74.58.81,1.88,3.23,1.44,4.25,1.13,1.51-.46,1.98-2.26,3-3.09,6.22-5.07,10.35-12.85,15.04-20.15,7.33-11.4,15.98-21.26,24.74-31.2,1.32,2.17.8,3.78,1.16,5.22-3.89,11.82-4.89,31.34-8.27,43.5-2.32,8.35-34.63,30.26-27.69,45.14.71,1.51,3.4.81,4.46.02.84-.63,1.56-1.93,1.84-4.32,2.77,4.24,12.26-15.86,17.68-18.61l1.31,4.78c-.76-.93-5.43,20.38-5.33,17.85l-.48,12.03c-9.21.33-27.04.28-37.59.12-6.38-37.96-19.57-71.71-43.91-100.29-11.8-13.86-25.5-24.7-39.89-36.12-10.81-8.58-24.3-12.5-35.9-20.74l2.92-17.58c3.63-.83,6.43-.87,9.27-1.28Z"/>
    <path class="cls-1" d="M1234.8,210.64c-1.8-.12-3.89.07-6.77.68,3.67,3.61,8.56,1.56,13.5,2.24,9.09,1.25,17.54,3.98,26.62,6.19,2.8,4.94,3.21,10.41,3.54,15.55l-127,1.35c-.37-6.27.84-10.77,2.27-16.61,28.77-7.77,58.81-13.23,87.84-9.4Z"/>
    <path class="cls-1" d="M1236.15,178.14c-1.04.41-2.54-.54-4.1,1.02,9.24,1.7,18.35,4.47,27.65,7.82l4.85,13.36c.65,1.78,1.59,3.02,2.63,3.95-3.33,1.81-6.14.58-9.45-.03-29-5.32-57.63-3.59-86.78,3.4-7.63,1.83-14.2,6.5-23.22,4.66l5.47-31.4c6.41,1.41,11.55-1.19,16.92-2.12l13.97-2.41c17.52-3.03,35.45-1.98,52.07,1.74Z"/>
    <path class="cls-1" d="M1221.36,144.36c-1.44-.25-3.53-.35-5.6.95,7.05.99,14.07,3.01,21.35,4.48,4.42.89,5.06,4.03,6.98,7.27,2.59,4.39,6.82,7.78,7.34,12.86-1.31.34-2.42,1.8-4.65.99-9.6-3.49-19.47-2.87-29.4-3.8-12.41-1.16-34.01.93-45.73,4.11-5.6,1.52-10.74,2.58-17.03,1.5l3.69-25.03c21.1-4.66,42.77-7.02,63.06-3.32Z"/>
    <path class="cls-1" d="M1191.43,110.54c9.46,8.59,17.87,1.91,28.41,13.74l9.88,11.09c-.57,1.3-1.85,1.64-3.18,1.36-17.78-3.76-35.06-2.54-52.72,1.14-4.52.94-8.86,1.8-13.81,1.14l4.06-27.17c15.26-4.86,17.46-.88,18.43-.82,3.12.17,5.95-.96,8.93-.46Z"/>
    <path class="cls-1" d="M1302.44,181.02c-1.02.83-1.48,2.63-3,3.09-1.02.31-3.43.76-4.25-1.13-8.24-19.03,38.65-60.49,51.49-74.58,1.5-9.73,3.92-19.02,4.57-28.94,1.13-17.35,4.55-13.45,1.66-20.08,2.72.45,5.7-1.04,8.89.15l-7.47,47.31-28.7,30.66c-7.28,7.77-29.24,33.48-23.2,43.52Z"/>
    <path class="cls-1" d="M1313.72,219.22c-.28,2.4-1,3.7-1.84,4.32-1.06.79-3.75,1.5-4.46-.02-6.94-14.87,25.37-36.79,27.69-45.14,3.39-12.16,4.39-31.68,8.27-43.5,2.44-1.23,3.48-4.5,7.05-4.7l-8,50.28c-9.14,8.95-28.77,26.3-28.71,38.75Z"/>
    <path class="cls-1" d="M1280.93,145.59c.24,2.22.96,5.23-2.11,5.66-8.11,1.12-3.98-16.47-3.69-16.98l11.6-20.75,32.15-44.94c2.27-3.18,5.27-5.6,5.37-9.23,2.29.23,4.93-1.33,7.56,1.14l-25.51,34.95c-8.41,11.53-15.93,22.98-22.41,35.68-2.39,4.68-3.47,9.75-2.95,14.47Z"/>
    <path class="cls-1" d="M1258.4,123.04c-.26,1.3-.12,3.01-1.33,3.59-1.82.87-4.4.48-5.49-1.65-6.74-13.09,7.31-41.88,13.37-56.24,1.41-3.35,3.54-6.21,2.4-9.48,2.46.17,5.13-.7,8.49.63-5.33,13.61-24.73,51.02-17.44,63.15Z"/>
    <path class="cls-1" d="M1230.66,60.73c-1.05,6.65-4.99,17.06-.76,22.94-7.27,9.05,2.31,14.96-1.62,18.12-1.16.94-3.44.77-4.6-.66-7.3-8.99-1.82-31.53.16-41.95,2.38.13,5.09-.36,6.82,1.55Z"/>
    <path class="cls-1" d="M1173.81,87.66c4.52,6.28,21.05,12.32,20.49,17.31l-28.67.05c.45-6.5,1.23-12.18,2.69-18.24l5.48.89Z"/>
    <path class="cls-1" d="M1234.8,210.64c14.05.97,27.98,3.83,41.72,8.61,1.56,5.62,2.3,10.82,2.27,15.96-3.24.68-5.16.07-7.09.09-.33-5.14-.74-10.61-3.54-15.55-9.08-2.22-17.53-4.94-26.62-6.19-4.94-.68-9.83,1.37-13.5-2.24,2.88-.61,4.96-.8,6.77-.68Z"/>
    <path class="cls-1" d="M1221.36,144.36c27.56,4.8,24.97-.59,38.43,25.18-3.79,1.8-6.01-.23-8.37.38-.52-5.08-4.75-8.47-7.34-12.86-1.92-3.25-2.56-6.38-6.98-7.27-7.29-1.47-14.3-3.49-21.35-4.48,2.08-1.31,4.17-1.2,5.6-.95Z"/>
    <path class="cls-1" d="M1326.9,235.27l.48-12.03c-.1,2.54,4.57-18.78,5.33-17.85,1.32-1.45,3.5-3.19,6.08-5.1-.79,11.25-2.85,22.26-5.17,33.74-.49,2.45-5.02,1.17-6.73,1.24Z"/>
    <path class="cls-1" d="M1236.15,178.14c10.88,2.44,21.99,2.69,30.73,8.58,3.72,4.72,4.58,12.56,5.97,18.04l-5.67-.48c-1.03-.93-1.98-2.16-2.63-3.95l-4.85-13.36c-9.3-3.34-18.41-6.12-27.65-7.82,1.56-1.56,3.06-.61,4.1-1.02Z"/>
    <path class="cls-1" d="M1229.73,135.36l-9.88-11.09c-10.54-11.83-18.95-5.15-28.41-13.74,27.44,4.58,28.26,3.38,46.11,25.02-3.38,1.16-5.41-.73-7.82-.19Z"/>
    <path class="cls-1" d="M1195.35,80.56c-.25.92-.19,1.9-.71,2.78-1.55,2.61-8.33-.43-11.21-9.13-1.64-4.95-1.37-10.1-1.63-14.84,13.2-1.92,2.59,9.64,13.55,21.19Z"/>
    <path class="cls-1" d="M1194.31,104.97c.55-4.99-15.98-11.02-20.49-17.31-.54-6.87,27.53,13.58,29.56,15.48-3.37,2.77-6.43,1.38-9.07,1.83Z"/>
  </g>
</svg>