<?xml version="1.0" encoding="UTF-8"?>
<svg id="Capa_1" data-name="Capa 1" xmlns="http://www.w3.org/2000/svg" viewBox="0 0 595.28 841.89">
  <defs>
    <style>
      .cls-1 {
        fill: #fff;
        fill-rule: evenodd;
      }
    </style>
  </defs>
  <path class="cls-1" d="M51.16,422.53c.42,4.58.27,9.78.98,14.34.33,2.11.58,4.84.76,6.96.39,4.45,2.29,15.54,3.22,19.6.49,2.11.87,4.4,1.4,6.32.56,2.02,1.09,4.12,1.5,6.03,1.89,8.63,8.08,26.02,11.72,34.26,8.79,19.87,15.36,31.05,27.87,48.63,9.58,13.46,17.66,21.42,28.69,32.51,4.48,4.51,11.31,10.05,16.38,14.23,7.98,6.6,18.22,13.27,27.18,18.75,7.08,4.33,22.91,12.59,30.52,15.37,1.88.69,3.82,1.48,5.54,2.23,4.01,1.75,18.52,6.59,22.91,7.67,2.03.5,4.05,1.07,6.03,1.57,4.13,1.03,8.25,1.93,12.49,2.78,2.12.43,4.48.78,6.5,1.25,4.2.99,15.96,1.9,20.44,2.47,8.02,1.02,21.43,1.15,29.56.87,12.99-.44,34.05-3.1,47.15-6.4,2.07-.52,4-1.04,6.02-1.46,2-.42,4-1.15,6.13-1.69,7.97-2.02,15.54-5.35,22.76-7.83l15.91-6.96c6.56-3.49,13.59-6.96,19.76-10.83,3.07-1.93,8.97-5.5,11.76-7.55l6.6-4.7c21.89-15.69,44.38-39.25,59.63-62.81,9.52-14.7,14.43-24.26,21.31-39.89,7.71-17.52,13.79-40.72,16.52-59.94.53-3.71.98-10.66,1.52-13.86,1.51-8.95.91-35.25-.16-43.71-1.12-8.89-1.85-17.84-3.98-26.54-.51-2.1-.94-4.35-1.4-6.38-.45-2-1.01-4.02-1.54-5.99-1.86-7.01-4.66-16.7-7.33-23.28-2.64-6.52-3.83-9.75-6.75-16.31-6.78-15.17-15.73-30.14-25.43-43.36-8.82-12.01-19.25-23.74-28.69-32.52-15.57-14.49-33.86-28.38-53.29-38.52l-7.68-3.88c-4.01-2.1-9-4.02-13.1-5.97-2.13-1.01-13.8-5.45-16.73-6.33-2.07-.62-3.78-1.12-5.73-1.82-3.43-1.24-8.09-2.36-11.92-3.34-24.07-6.14-44.35-7.78-69.09-7.36-4.44.08-9.83.46-14.4.91-10.59,1.04-22.65,2.98-32.89,5.4-2.1.5-3.85,1.05-5.88,1.56-29.24,7.41-59.52,21.86-82.98,39.51-7.96,5.99-17.77,13.86-24.91,21-2.5,2.5-5.41,5.17-7.64,7.66-8.14,9.08-13.51,14.9-20.85,25.05-8.01,11.08-17.2,26.11-22.8,38.43-.85,1.86-1.63,3.46-2.46,5.3-4,8.87-7.63,18.43-10.44,27.67-2.51,8.27-4.25,15.93-6.17,24.5-2.15,9.61-2.59,17.44-3.71,26.88-.72,6.02-1.32,23.82-.8,29.52M285.46,182.57c2.95-.99,24.15.04,28.3.38,25.8,2.13,46.39,7.02,70.12,16.59,3.48,1.41,6.9,2.83,10.23,4.44,7.63,3.7,11.81,5.97,18.9,9.94l17.59,11.44c2.71,2.02,5.75,4.25,8.26,6.17,15.06,11.46,31.18,28.24,42.85,43.84,13.1,17.51,21.59,33.64,29.85,53.53,2.75,6.61,5.95,17.2,8.05,24.34,2.48,8.49,4.86,21.32,6.04,30.28.75,5.68,1.26,14.05,1.7,19.93.9,12.02-.64,41.12-3.84,53.62-.47,1.83-.92,4.27-1.26,6.08l-2.86,11.82c-7.17,25.01-15.02,42.58-29.07,64.73-10.34,16.3-25.83,34.15-40.17,46.75-8.99,7.9-22.81,18.84-33.17,24.71-3.26,1.85-6.14,3.83-9.09,5.31-1.6.8-3.21,1.65-4.84,2.52-9.13,4.91-15.38,7.31-24.87,11.25-5.77,2.4-15.61,5.34-21.83,7.01-7.6,2.05-15.57,3.83-23.65,5.13-13.52,2.18-26.99,2.91-40.73,2.78-2.46-.02-4.73-.12-7.09-.21-1.19-.05-2.37-.08-3.57-.1-1.25-.02-1.85-.26-3.08-.31-6.62-.27-18.79-2.12-25.42-3.37-44.68-8.43-83.89-29.04-115.24-58.49-9.39-8.82-19.81-20.15-27.37-30.5-7.8-10.68-10.74-15.51-17.05-26.4-5.18-8.94-14.74-30.19-17.57-40.33-1.08-3.85-2.22-7.2-3.3-11.12-2.18-7.95-3.58-15.48-5.14-23.88-1.57-8.47-1.92-17.32-2.62-26.33-.69-8.94-.06-19.48.42-28.42.59-10.94,3.36-26.73,6-37.41,2.34-9.44,5.25-18.55,8.61-27.56.63-1.68,1.39-3.13,2.05-4.98,2.71-7.63,10.35-22.1,14.4-29.11,3.13-5.43,7.86-12.51,11.46-17.57,12.67-17.81,32.21-38.26,50.09-51.03,13.35-9.54,20.49-14.22,35.91-21.98,14.26-7.17,37.44-15.67,53.55-18.69,4.02-.75,8.1-1.81,12.14-2.28l12.89-1.61c2.31-.44,13.08-.79,13.42-.91Z"/>
  <path class="cls-1" d="M366.17,467.87c-1.7-2.91,1.97-2.44-6.19-9.33-2.71-2.29-10.37-9.71-13.22-12.51-6.7-6.6-14.48-13.57-21.23-20.03-3.31-3.17-3.51-2.56-.76-5.72l14.46-16.36c.54-.59.69-.97,1.17-1.5l8.41-9.54c1.64-1.83,3.11-3.55,4.8-5.64,3.75-4.65,8.27-9.2,12.01-13.71,3.89-4.69,7.99-9.17,11.79-13.95,1.53-1.93,3.19-3.76,4.73-5.7.64-.81,1.64-1.99,2.35-2.73.82-.87,1.54-1.98,2.27-2.84,1.78-2.09,12.2-15.07,13.68-17.35l8.67-11.96c1.63-2.15,2.6-4.08,4.06-6.17,4.44-6.38,13.04-20.37,12.92-28.41-3.33.32-22.43,16.31-26.26,19.76-2.45,2.2-5.21,4.56-8.01,7.06-1.36,1.22-2.71,2.57-4.02,3.74-3.32,2.98-9.05,7.94-11.84,10.79-2.36,2.42-5.58,5.07-7.99,7.32l-23.69,21.76c-4.28,3.67-11.35,10.44-15.79,14.61l-4.04,3.71c-1.45,1.2-2.48,2.48-3.87,3.67-2.6,2.22-5.2,4.95-7.8,7.29-1.09.98-14.92,14.61-15.5,14.79l-11.35-10.94c-3.58-3.46-7.95-7.25-11.45-10.73-6.02-5.98-12.98-12.13-19.37-17.9-1.39-1.25-2.3-2.34-3.73-3.58-2.78-2.41-5.12-4.59-7.78-7.07l-15.51-14.22c-2.71-2.48-5.13-4.76-7.71-7.13l-13.71-12.48c-3.46-2.82-6.26-5.65-9.76-8.63-6.82-5.82-11.62-9.7-18.62-14.88-.43-.31-.61-.53-.98-.79-1.42-1.01-4.13-3.36-5.75-3.34-.45,7.98,9.52,23.64,14.2,30.36,6.08,8.73,11.98,17.23,18.67,25.48,1.13,1.4,2.21,2.8,3.33,4.22,7.63,9.65,15.88,18.87,23.52,28.15l12.08,13.89c1.7,1.69,3.54,4.01,5.13,5.94,1.14,1.38,2.33,2.66,3.39,3.94,2.02,2.45,20.2,22.66,20.5,23.55-.53,1.05-9.27,9.01-10.94,10.48-3.79,3.34-7.46,7.2-11.05,10.46l-12.53,11.88c-1.26,1.23-2.04,1.58-4.16,3.83-1.01,1.07-1.67,2.08-1.7,3.72-.06,2.93-1.05,1.5-3.2,2.01-2.63.62-3.15,3.12-3.9,4.33-.81,1.29-.45.18-1.75.91-1.33.74-1.84,2.03-2.81,2.45-1.07.47-1,.16-1.79.93-3.03,2.96.36,2.12-2.88,4.87-.94.8-1.98,1.62-2.85,2.47-1.02,1-1.94,1.67-2.81,2.51l-2.77,2.55c-3.51,3.05-20.94,18.08-22.59,20.07-2.37.05-2.4.04-3.63,1.41-.7.78-1.82,1.54-2.09,2.57-.3,1.12.14,1.04-.64,1.77l-8.65,7.55c-4.92,4.53-17.98,16.81-23.03,20.21-.22.15-.53.41-.62.46-1.47.84-3.28-.57-5.7,6.08-1.05,2.89-1.1,4.69-.24,7.76.63,2.25,1.81,4.38,3.41,5.96,1.34,1.32,3.63,3.23,5.27,4.05,4.96,2.51,9.97,3.44,14.05-.59,1.52-1.5,3.41-3.22,4.34-4.98.96-1.83.28-2.8.79-3.85.48-.98,18.8-21.13,19.86-22.29.74-.81,1.4-1.52,2.24-2.42,2.59-2.75,2.12-3.24,4.97-4.3,3.78-1.4,2.11-3.38,3.84-5.53,2.01-2.5,4.63-4.73,6.62-7.36.71-.93,1.51-1.67,2.22-2.42.81-.85,1.46-1.51,2.27-2.39l15.85-16.75c.4-.41,2.12-2.23,2.31-2.33,1.38-.71,1.17.49,3.14-1.54.72-.74,1.24-1.78,2.24-2.39,1.61-.98,1.26-1.35,2.25-2.44.45-.5,2.04-1.22,2.86-1.78,2.13-1.46,2.55-3.17,3.55-5.33l.19-.34c1.32.12,1.61.44,2.57-.21.62-.42.73-.93,1.42-1.19,1.43.51.27.86,2.09.89.45-.76.44-.55.59-1.62.35-2.49,1.67-2.32,3.69-1.47,4.21,1.77,3.02,6.54,5.53,9.94,1.56,2.11,3.26,2.23,5.15,3.74.88.7.32.69,1.35.99.85-.04,7.97-8.32,8.41-8.8,1.41-1.51,2.68-2.94,4.16-4.48,3.02-3.14,19.22-21.78,20.25-22.2,1.16.56,15.4,16.83,17.64,19.27,2.85,3.1,5.78,6.54,8.77,9.64.79.82,8.09,9.38,9.07,9.48l5.51-3.5c3.57-4.11,2.42-6.67,4.19-9.15.87-1.23,3.99-3.63,5.45-2.21,1.26,1.23.06,2.14,1.26,3.07.89.59,1.49-.81,2.22-.68.81.42.7,1.06,1.53,1.48,1.08.55,1.3-.1,2.46-.05,1.54,2.95.18,3.31,4.28,6.16.58.41,1.66.85,2.08,1.23.74.66.4,1.19,1.59,2.01.9.63,1.06.57,1.79,1.5.6.76,1.08,1.26,1.7,1.86,1.18,1.13.67.67,2.53.89,1.46,1.84,3.44,3.43,5.13,5.18,1.87,1.93,3.22,3.55,5.04,5.4,3.05,3.11,19.46,20.58,19.83,21.79.53,1.76.23,2.61,1.7,3.71.51.38,1.14.78,1.63.99.65.29,1.12.23,1.76.7.81.6,1.61,1.93,2.38,2.72,3.73,3.82,10.29,11.05,13.54,15.08l3.7,4.04c1.71,1.92,3.05,3.63,4.89,5.53,1.89,1.95.31,1.82,1.22,4.07,1.06,2.59,5.34,6.75,7.81,7.72,5.9,2.33,11.73-1.99,14.92-4.59,5.53-4.5,6.72-12.16,2.34-18.62-2.16-3.19-2.26-.75-6.3-4.12-3.59-3-10.98-9.26-13.88-12.07-3.52-3.4-6.47-6.33-10.79-9.84-.6-.49-5.37-4.74-5.46-4.93-.81-1.73.76-.57-1.94-3.42-1.25-1.32-1.09-1.67-3.38-1.83-.99-.07-.97-.39-1.58-.96l-20.73-18.33c-3.48-2.93-7.08-6.61-10.87-9.65-.11-1.81.43-1.73-.85-3.01-.74-.74-1.01-1.09-2.15-1.45-1.44-.45-1.67-1.79-2.98-2.34-.87-.36-.81.08-1.3-.44-.55-.45-.7-1.36-1.07-2.02-1.97-3.46-2.91-2.39-6.04-3.06"/>
  <path class="cls-1" d="M179.78,439.37c.57.37,4.76.43,5.71.18.98-.26.75-1.26.74-2.38v-14.86c0-3.65-3.9-11.77-5.3-15.78-.83-2.37-.53-1.61-1.18-1.83-.2.31-.07-.07-.22.55-.01.06-.32,32.56.08,33.81l.17.31ZM213.24,404.73c-.8.1-.45-.24-.91.71l-2.84,7.57c-1.08,3.01-2.75,5.99-2.73,9.29v15.09c-.03,1.4-.35,1.96.9,2.14.06,0,5.15.23,5.63-.34.57-1.14.19-14.78.19-17.33s.45-15.93-.24-17.13ZM201.71,425.68c.62-.42.62-1.16.95-2.03l2.2-5.76c1.11-3.22,8.64-21.91,8.39-23.51-1.46-.11-5.57-.19-6.88.08l-5.85,15.54c-1.19,3.59-2.94,5.82-1.99,8.16l2.19,5.84c.22.63.23,1.4,1,1.68ZM189.32,421.38c.47,1.38,3.42,9.57,3.96,10.34,9.87,1.03,6.71-1,3.67-9.73l-10.34-27.57c-1.24-.14-2.5-.09-3.75-.09-4.08,0-4-.85-1.47,5.67l7.93,21.38ZM391.78,395.58c-.63-.42-2.65-.23-3.55-.24-2.33,0-2.87-.31-3.08.8l.06,43.84c.39.98,5.63.77,6.56.3.73-1.12.27-19.46.27-22.4,0-1.09.36-21.17-.27-22.29ZM394.99,421.4l2.64.17,4.89,14.41c.35,1.22,1.05,3.83,1.85,4.37.42.23,6.38.34,6.74-.05.38-.81-1.04-3.88-1.49-4.99-.69-1.69-1.2-3.24-1.89-5-.64-1.63-3.48-8.75-3.57-10,.89-.88,2.38-1.63,3.53-2.73,3.31-3.16,4.4-9.17,2.99-13.97-1.83-6.26-9.3-9.47-15.66-8.23-.36,1.18-.22,3.45-.21,4.76.01,2.44.89,1.72,3.18,1.76,2.96.06,4.94,1.51,5.9,3.62,1.37,3.04.22,5.6-1.34,7.39-2.62,2.99-5.11,1.1-7.42,2.07-.59,1.1-.5,4.94-.15,6.41Z"/>
  <path class="cls-1" d="M285.67,584.12c-.22.82-.28,2.09-.34,2.99-.11,1.62.1,1.49,1.46,1.85,1.35.37,2.15.96,3.09,1.77,1.19,1.03.95.97,3.14-.6,1-.71,4.02-1.76-1.95-4.79-1.16-.59-2.69-1.15-4.04-1.34l-1.37.12ZM404.83,552.65c.44-.81,1.38-3.89,1.34-5.03-2.4-.37-3.57-.35-5.81.32-1.52.46-3.78,1.32-4.41,2.32.23,1.08,1.76,2.74,2.44,3.56,1.27,0,1.81-.61,2.88-.93,1.19-.37,2.25-.15,3.55-.24ZM258.17,598.95c.17-.48.77-2.9.8-3.49.06-1.07-.15-.99-1.1-1.18-2.56-.51-6.74-1.81-8.56-1.73-.41,1.28-1.03,2.7-1,4.29,1.41.67,7.9,2.16,9.85,2.11ZM270.6,610.26c.24,2.79,7.01,6.01,10.32,5.66l.24-4.51c-.96-.52-2.24-.63-3.27-1.18-3.18-1.69-.89-3.33-7.29.03ZM401.07,580.43c.27.22.13.22.69.44.38.15.21.09.68.15,3.38.38,8.52-1.12,10.31-3.03-.07-.84-.78-1.41-1.12-1.87-2.27-3.04-1.52-1.46-4.72-.74-1.4.31-2.5.07-3.82.3-.42.97-1.91,4.01-2.02,4.74ZM252.65,579.03c-.3,1.32-.87,3.24-.85,4.35,1.19.63,11.61,3,13.29,2.76.28-1.25.73-3.12.53-4.38-.89-.6-5.31-1.22-6.52-1.51-1.17-.28-5.74-1.39-6.45-1.22ZM244.97,610.15c1.22.76,13.6,3.34,15.35,3.15.97-6.37,2-3.55-6.85-5.91-1.42-.38-6.2-1.59-7.4-1.53-.66.85-1.24,3.33-1.1,4.29ZM194.39,581.38c.95-.36,3.05-4.37,3.61-5.32,1.57-2.69,9.56-15.03,9.63-16.25-.58-.62-1.35-.99-2.05-1.44-3.41-2.19-2.14-1.87-9.24,8.95-1.92,2.93-1.75,2.01-1.93,6.24-.06,1.39-.25,2.74-.31,3.98-.03.66-.03,1.35-.04,2.01l.23,1.66s.06.12.1.17ZM169.75,572.22c.45,1.27,2.07,1.95,2.93,2.65,1.3,1.05,1.67,2.15,3.17.08l6.94-9.24c1.21-1.55,1.3-1.35,1.62-3.76.25-1.84,1.47-7.95,1.27-9.19-1.09.08-3.45,3.59-4.22,4.55-2.02,2.54-11.46,13.9-11.72,14.91ZM330.71,580.13c-.32,1.61,1.29,7.42,1.75,9.45l4.14,18.94c.83,3.48.34,3.61,2.46,3.08,1.55-.39,3.07-.7,4.48-1.13.09-2.07-2.96-13.12-3.71-15.75l-1.95-7.82c-.43-1.78-1.26-6.25-1.99-7.58-1.02-.19-3.77.58-5.18.82ZM216.24,595.65c-1.39,2.91-2.21,4.08-.61,4.58,1.5.47,4.65.71,6.48.42,3.84-.61,5.6-3.26,6.93-6.88,1.15-3.14,7.21-19.05,7.21-19.98-.67-.66-3.84-1.81-4.92-1.86-.89,1.36-2.23,4.99-2.93,6.77-.97,2.44-1.81,4.46-2.82,6.95-.94,2.31-1.77,4.68-2.78,7.04-1.69,3.93-4.36,2.84-6.55,2.97ZM240.69,609.13c1.23.33,1.49.46,1.87-.73l3.11-11.6c.7-2.95,1.86-6.13,2.58-9.04.53-2.14,2.33-7.63,2.28-9.56-.72-.27-1.77-.5-2.6-.75-.74-.22-1.9-.85-2.58-.39-.68.46-7.57,24.27-8.41,26.64-.35.99-1.17,2.88-.78,3.92l4.52,1.52ZM213.73,594.1c-4.77-3.07-1.59-7.37,1.43-13.32.77-1.51,6.46-12.64,6.15-13.43-.84-.87-3.32-2.12-4.52-2.25-.67.49-.99,1.14-1.36,1.99-.44,1.01-.59,1.26-1.13,2.2l-6.74,12.8c-1.94,4.01-5.09,8.21.45,13.76.94.94,2.34,2.44,4.21,2.41.56-1.06,1.49-2.6,1.5-4.16ZM379.81,592.59c-3.27-.24-4.06,1.37-6.43-3.51-1.15-2.35-2.11-4.57-3.26-7.19-.73-1.67-3.11-5.39-2.35-7.79.45-1.43,2.02-1.94,1.78-3.11-.1-.49-1.51-3.09-1.72-3.38-1.36.07-3.24,2.01-4.15,3.11-4.24,5.12.02,11.57,1.78,16.04,1.21,3.08,2.6,7.46,5.05,9.41,3.12,2.47,7.81,2.19,11.12.49,0-1.23-1.07-3.23-1.82-4.08ZM375.99,570.95c1.76,1.33,3.6,5.72,5.05,8.24.58,1.01,1.13,2.02,1.54,2.85,2,4.01,3.79,5.49-.13,8.98,0,1.02,1.15,3.22,1.76,4.05,2.5-.03,6.54-4.87,6.73-7.98.26-4.29-2.41-7.31-4.09-10.39-3.72-6.82-6.8-14.36-16.8-10.46-.04,1.2,1.2,3.31,1.76,4.12,1.52.18,2.85-.41,4.17.58ZM191.38,587.18c.25-3.09.22-6.47.28-9.64.08-4.5.95-13.68,1.61-18.28.37-2.62,1.19-6.05,1.22-8.69-1.83-.93-4.03-3.57-4.86-3.08-.53.31-1.6,7.36-1.78,8.48-1.05,6.64-1.47,11.68-2.21,18.11-.31,2.7-.67,6.89-.5,9.65.68.6,2.07,1.5,3.03,2.05.78.45,2.08,1.63,3.22,1.39ZM347.23,589.55c-1.36,1.55-3.23,1.71-4.55,2.27l-.67.37c-.12,1.34.46,3.26.94,4.28l2.69-.19c2.93,3.76,5.52,6.57,8.41,9.9.74.85,1.05,1.14,2.45.64,1.27-.45,4.28-1.08,5.09-1.99-.2-.86-9.9-9.44-10.85-11.31.3-.67,1.56-1.64,2.15-2.52,3.42-5.09,1.12-12.65-6.64-13.8-2.14-.32-6.52.36-7.92,1.24-.25,1.13.34,2.3.59,3.37.4,1.68,1.2,1.17,2.68.75,6.1-1.73,8.67,3.52,5.63,7ZM283.93,616.18c9.95.52,15.54-10.7,6.96-16.04-4.28-2.66-8.54-2.03-11.22-4.51-1.63-1.52-1.63-3.75-.11-5.41.77-.85,1.37-1.16,2.53-1.5,1.51-.44.95-1.03,1.14-2.68.19-1.71.71-2.47-1.44-2.33-1.03.07-2.5.37-3.33.78-1.59.79-3.2,2.09-4.2,3.53-2.89,4.15-1.62,8.38,1.27,11.09,3.57,3.34,7.18,2.54,10.96,4.56,1.72.92,3.23,2.55,2.05,5.06-.4.86-1.1,1.41-2.1,1.95-1.69.91-3.25-.15-2.52,5.52ZM412.7,572.22c.12,1.36,1.19,2.26,1.77,3.06,1.02,1.38,1.52.43,2.46-.53,5.58-5.67,3.65-16.34-5.18-15.78-5.83.36-9.95,4.99-13.72,4.17-2.25-.49-3.74-3.11-2.51-5.82.66-1.46,1.58-1.53.44-3.01l-1.43-1.89c-.6-.6.1-.16-.74-.48-2.61.99-5.12,6.2-4.06,10.38,1.77,6.97,9.52,7.3,14.52,4.63,2.58-1.38,8.02-4.48,9.76-.31,1.07,2.56-.79,4.03-1.3,5.6ZM316.08,587.68c6.03-1.15,6.73.05,6.17-2.94-.14-.74-.31-1.85-.51-2.58-1.46-.18-7.42.72-9.17.97-1.45.2-3.19.38-4.63.43-4.01.13-4.57-.17-4.6,1.51l.13,3.39c1.71.75,4.4-.34,6.69,0,.55,1.84,1.86,25.57,2.66,27.02,1.31.23,4.59-.19,6.09-.38.81-2.19-2.89-22.73-2.83-27.43Z"/>
  <path class="cls-1" d="M276.05,230.89c.61.47,5.06-.08,5.71-.42.61-1.02.07-3.47-.32-4.54-.62-.06-4.83.26-5.4.41-1.17.31-.48,2.93-.24,3.89l.25.66ZM404.02,272.83c-.33-1.04-1.2-1.51-1.75-2.47-.63-1.09-.73-2.19-1.16-3.04l-4.92-.04c-.24,4.05,3.72,8.57,4.76,8.89,1.01.32.7.07,1.02-.2.28-.23,1.9-2.64,2.04-3.14ZM423.41,261.83c.64.55,4.09.88,5.34.73.49-3.4-3.69-9.41-5.4-10.05-.89-.33-.74-.21-2.03,1.53-2.17,2.93-.36,1.94,1.02,4.87.28.6.74,2.62,1.06,2.92ZM253.5,239.68c.01,1.4.22,2.61-.47,3.76-.6.98-1.59,1.3-2.19,2.11,0,.85.76,3.54,1.04,4.17,2.05.11,4.76-2.37,5.76-3.69,1.6-2.13,1.95-4.6,1.28-7.55-1.61-.06-4.13.78-5.41,1.2ZM195.21,266.09c-.06,1.66.81,1.91.68,3.63-.26,3.47-3.43,1.18.81,6.53,2.89-.23,7.15-8.08,3.45-12.8-1.48-.17-3.74,1.92-4.95,2.64ZM243.45,218.72c-.18,1.09.6,3.42.93,4.34,3.57.96,3.2-.89,5.6,3.49,1.96.05,4.4-.74,5.92-1.3-.14-2.95-2.2-4.74-4.13-5.81-1.56-.86-6.18-1.92-8.32-.71ZM178.21,250.43c.29,1.27,1.58,2.42,2.28,3.45,1.62-.05,2.53-.96,3.97-.57,1.69.46,1.72,1.3,2.83,1.78,1.08-.12,4.6-2.57,5.14-3.32.19-.81-2.21-3.81-6.47-3.9-2.63-.05-6.73.93-7.75,2.57ZM282.82,211.77c-.21,1.54.97,13.29,1.19,15.8.18,2.07.84,15.25,1.43,16.1.57.49,4.82,0,5.07-.24l-1.21-31.16c-.12-1.18-.45-.98-1.74-.93-1.04.04-3.84.18-4.74.43ZM265.05,213.97c-.07.42,4,25.64,5.03,30.55l.39,1.04c.89.53,4.16-.24,5.1-.66.16-1.66-3.96-31.13-4.31-31.86-1.14-.13-5.53.51-6.21.92ZM300.71,243.28c.75.53,4.23.52,5.01.06.35-.36,1.77-31.05,1.22-32.16-.8-.23-3.54-.15-4.56-.16-2.39-.02-1.7.75-1.74,3.05-.05,3.14-.14,6.46-.15,9.75l-.08,14.64c0,1.07-.31,4.15.29,4.82ZM214.57,229.13c-.07,1.82,7.42,17.02,8.7,20.17,1.42,3.5,1.25,4.62-1.21,6.81.03,1.3,1.08,3.08,1.6,4.08,1.5.12,3.27-1.7,4.11-2.78,3.9-5.06,1.16-10.14-1.42-15.84l-4.09-9.88c-.38-.9-.64-1.73-1.01-2.59-.16-.37-.34-.82-.52-1.21-.37-.77-.19-.79-1.03-.85-.74-.05-4.49,1.74-5.12,2.09ZM221.65,261.52c.05-1.04-1.15-3.21-1.75-3.98-2.28-.3-3.46.44-4.93-1.09-1.09-1.13-1.63-2.53-2.37-3.8l-8.42-16c-1.29-2.7-1-2.02-5.46.38-2.04,1.1-.74,1.64,1.43,5.65.79,1.46,1.39,2.5,2.26,3.94,2.53,4.23,6.12,12.12,9.18,14.34,1.42,1.03,2.68,1.51,4.75,1.59,1.85.07,4.11-.1,5.3-1.03ZM377.66,256.75c-1.77-1.55-2.57-3.1-1.2-6.14.88-1.96,1.8-3.93,2.75-5.92,1.36-2.86,2.67-6.95,4.81-8.24,1.44-.87,2.47-.32,4.09-.37.61-.99,1.73-2.72,1.74-4.12-3.89-1.69-8.78-1.78-11.7,1.29-2.05,2.17-3.67,7.1-5.11,10.4-1.43,3.28-4.1,8.08-2.32,12.28.76,1.81,2.24,3.28,3.51,4.28,1.14.9,1.68,1.13,2.35-.39.53-1.2,1.07-1.79,1.09-3.08ZM249.52,250.56c.01-.89-.4-3.82-1.31-4.28-1.14-.57-3.37.65-4.98-3.63l-4.19-13.16c-.98-3.3,1.07-4.21,2.74-5.52.06-1.17-.64-3.32-1.25-4.17-2.61-.21-6.48,3.16-7.59,6.36-1.26,3.59,1.1,8.39,2.14,11.32,1,2.82,2.47,7.79,4.03,9.93,1.97,2.69,5.7,4.54,10.42,3.15ZM379.58,258.33c-.47,1.33-1.42,2.83-1.39,3.85,1.19.97,3.39,1.18,5.18,1.15,6.37-.11,8.6-6.67,12.16-12.72,2.43-4.12,5.44-8.58,1.5-13.65-.81-1.04-2.19-2.26-3.24-2.98-.96-.66-1.32-.73-1.88.38-.34.67-.82,1.42-1.08,2.07-1.1,2.8,4.48,1.67.46,8.87-1.16,2.08-5.33,10.55-6.74,11.88-2.14,2.01-3.39.38-4.96,1.15ZM194.8,278.15c.04-1.08-2.18-3.57-2.18-3.57-1.53-.65-3.36,2.18-6.76-1.87-1.42-1.7-2.87-3.64-4.1-5.21-1.4-1.79-2.6-3.36-3.99-5.1-2.83-3.54.46-5.93.52-6.65-.23-.93-1.1-1.91-1.56-2.52-1.03-1.37-1.45-1.12-2.53.06-6.59,7.18-3.36,11.31,1.14,16.62,1.19,1.4,2.18,2.58,3.35,3.97,1.22,1.45,2.48,3.25,3.89,4.34,1.85,1.43,3.17,2.24,6.06,2.15,2.11-.07,5.06-1.23,6.17-2.23ZM315.89,244.07c.87.4,6.8.9,8.45,1.24l7.64,1.17c.08,0,.44.03.58.02.07,0,.14-.02.2-.03.07,0,.15-.04.2-.05.94-.17,1.08-3.67.97-4.45-2.03-.62-11.14-1.64-12.07-2.19-.36-2.4.84-7.72,1.07-10.22.1-1.12.12-2.59.31-3.64.3-1.73,1.82-11.96,1.5-13.34-1.52-.24-3.26-.39-4.66-.53-1.35-.13-1.42-.2-1.66,1.02l-2.7,28.6c-.03.3-.14.78-.14,1.21,0,.36-.02.3.06.64.1.44.07.31.23.55ZM403.65,278.3c1.86,1.05,3.02,1.69,5.65,1.7,7.25.03,11.3-5.31,8.7-11.63-1.55-3.78-4.32-5.31-6.26-8.43-1.24-2.01-1.32-3.81.23-5.29,2.06-1.97,4-.42,6.27-.6,1.27-2.26,3.88-3.34.34-4.9-10.64-4.72-18.86,6.14-9.4,15.81,1.35,1.38,3.16,2.77,3.78,5.1.75,2.84-1.24,4.75-3.88,4.78-3.51.04-2.03-1.67-4.6,1.61-.65.82-.76.73-.84,1.85ZM342.14,248.64l17.04,5.19c.4-.17,1.79-3.75,1.51-4.28-1.09-.91-9.67-3.31-11.77-3.95,0-1.14,1.23-5.33,1.65-6.71.66-2.17,1.24-4.32,1.9-6.5.66-2.18,1.19-4.38,1.86-6.59.47-1.55,1.77-5.18,1.75-6.66-1.18-.65-4.19-1.59-6.05-1.55-.58,1.26-7.89,30.2-7.89,31.06Z"/>
</svg>